<?xml version="1.0" encoding="UTF-8"?>
<svg width="40px" height="40px" viewBox="0 0 40 40" version="1.1" xmlns="http://www.w3.org/2000/svg" xmlns:xlink="http://www.w3.org/1999/xlink">
    <!-- Generator: Sketch 50.2 (55047) - http://www.bohemiancoding.com/sketch -->
    <title>Page 1</title>
    <desc>Created with Sketch.</desc>
    <defs>
        <polygon id="path-1" points="0 0.246779661 39.6202712 0.246779661 39.6202712 39.9997966 0 39.9997966"></polygon>
    </defs>
    <g id="Symbols" stroke="none" stroke-width="1" fill="none" fill-rule="evenodd">
        <g id="Nav" transform="translate(-29.000000, -50.000000)">
            <g id="Page-1" transform="translate(29.000000, 50.000000)">
                <path d="M20,19.0002904 C20,18.4478652 19.5520046,18 19,18 C18.4474143,18 18,18.4478652 18,19.0002904 C18,19.5521348 18.4474143,20 19,20 C19.5520046,20 20,19.5521348 20,19.0002904" id="Fill-1" fill="#FCFAFC"></path>
                <path d="M23,19 C22.4474143,19 22,19.4481255 22,20.0002906 C22,20.5524557 22.4474143,21 23,21 C23.5525857,21 24,20.5524557 24,20.0002906 C24,19.4481255 23.5525857,19 23,19" id="Fill-3" fill="#FCFAFC"></path>
                <path d="M21,22 C20.4474143,22 20,22.4479954 20,23.0005811 C20,23.5525857 20.4474143,24 21,24 C21.5520046,24 22,23.5525857 22,23.0005811 C22,22.4479954 21.5520046,22 21,22" id="Fill-5" fill="#FCFAFC"></path>
                <g id="Group-9">
                    <mask id="mask-2" fill="white">
                        <use xlink:href="#path-1"></use>
                    </mask>
                    <g id="Clip-8"></g>
                    <path d="M24.5856949,24.0106441 C24.3877288,23.6486102 24.003322,23.4031864 23.5612881,23.4031864 C22.9172203,23.4031864 22.3945085,23.9252203 22.3945085,24.5692881 C22.3945085,25.2133559 22.9172203,25.7360678 23.5612881,25.7360678 C23.6053559,25.7360678 23.6487458,25.7333559 23.6907797,25.7286102 L23.6894237,25.732 L22.9192542,27.211322 L22.8256949,27.3509831 L22.6819661,27.5665763 L21.7423051,27.4811525 L21.383661,27.4486102 L20.8107797,27.3964068 L20.6311186,27.0797966 L20.244,26.4004746 L20.0426441,26.0465763 L13.0317966,13.7272542 L12.8101017,13.3381017 L14.0785763,12.1109831 L14.1904407,12.091322 L28.9578983,11.8336949 L30.2358644,13.1584407 L24.5856949,24.0106441 Z M21.2277288,4.91301695 C22.6650169,4.91301695 23.8338305,6.08183051 23.8338305,7.51911864 C23.8338305,8.95572881 22.6650169,10.1245424 21.2277288,10.1245424 C19.7911186,10.1245424 18.6223051,8.95572881 18.6223051,7.51911864 C18.6223051,6.08183051 19.7911186,4.91301695 21.2277288,4.91301695 Z M39.1416271,22.2431864 C39.0229831,21.9611525 38.8982373,21.6825085 38.7701017,21.4065763 C38.5219661,20.8709831 38.2575593,20.3462373 37.9775593,19.831661 C37.1294237,18.271661 36.1287458,16.811322 35.0053559,15.4709831 C34.4453559,14.7997966 33.8419661,14.1686102 33.2216271,13.5645424 C32.5972203,12.9625085 31.9382373,12.4025085 31.2623051,11.8730169 C31.2616271,11.871661 31.2602712,11.8709831 31.2589153,11.8703051 C30.6317966,11.3889492 29.983661,10.9442034 29.3185763,10.5306441 L28.5755254,10.5435254 L23.6107797,10.6248814 C24.1253559,10.2282712 24.5389153,9.70623729 24.8067119,9.10623729 L26.6568814,9.10623729 L26.6568814,7.79369492 L25.1314576,7.79369492 C25.1375593,7.70216949 25.1456949,7.612 25.1456949,7.51911864 C25.1456949,7.15369492 25.0914576,6.80115254 24.9972203,6.46555932 L28.4304407,6.46555932 L28.4304407,5.15369492 L24.343661,5.15369492 C24.1592542,4.91166102 23.9511186,4.68928814 23.7172203,4.4960678 L25.5029831,3.09877966 L24.6941695,2.06623729 L22.4697627,3.80657627 C22.1138305,3.68657627 21.7348475,3.61810169 21.3409492,3.60657627 L19.4012881,0.246576271 L18.2650169,0.902847458 L19.9490847,3.82013559 C19.5267119,3.96657627 19.1368814,4.18149153 18.7938305,4.45471186 L15.4867119,2.54555932 L14.8311186,3.68183051 L17.903661,5.45538983 C17.7985763,5.62420339 17.703661,5.79911864 17.624339,5.98284746 L13.9423051,5.78488136 L13.8717966,7.09471186 L17.3226441,7.28047458 C17.3172203,7.35979661 17.3104407,7.43844068 17.3104407,7.51911864 C17.3104407,8.82962712 17.9599322,9.98962712 18.9517966,10.7008136 L15.1301017,10.7638644 L14.0717966,10.7808136 C14.0717966,10.7808136 14.243322,10.8187797 13.4717966,10.8187797 C12.7009492,10.8187797 11.4609492,12.4540339 11.4609492,12.4540339 L0.526711864,25.2940339 L0.489423729,25.3333559 C0.187050847,25.652678 -6.77966102e-05,26.0825085 -6.77966102e-05,26.5570847 C-6.77966102e-05,26.7035254 0.0195932203,26.8452203 0.0528135593,26.9814915 C0.238576271,27.7374237 0.906372881,28.3028475 1.71247458,28.332678 C1.73484746,28.3333559 1.75654237,28.3360678 1.77891525,28.3360678 C2.32061017,28.3360678 2.804,28.0933559 3.13077966,27.712339 C3.20061017,27.6309831 3.26230508,27.5428475 3.31654237,27.4492881 L12.1951864,14.9089492 L19.5612881,27.8540339 C19.0677288,28.2397966 18.5890847,28.6465763 18.124,29.0682712 C17.523322,29.6201356 16.9456949,30.1977627 16.3856949,30.7909831 C15.2711186,31.9828475 14.2270508,33.2397966 13.244,34.5421695 C12.7511186,35.1930169 12.2724746,35.8553898 11.8073898,36.5292881 C11.7178983,36.6581017 11.6317966,36.7909831 11.5429831,36.9211525 C11.4087458,37.1197966 11.2731525,37.3170847 11.1409492,37.5184407 C11.0541695,37.7292881 11.0053559,37.9597966 11.0053559,38.2025085 C11.0053559,38.4784407 11.0690847,38.7394576 11.1802712,38.972678 C11.4690847,39.5794576 12.0860339,39.9997966 12.8026441,39.9997966 C12.9470508,39.9997966 13.0867119,39.9814915 13.2202712,39.9496271 C13.5850169,39.8621695 13.9056949,39.6648814 14.1456949,39.3936949 L14.2263729,39.191661 C14.3456949,38.8974237 14.4697627,38.6031864 14.5945085,38.3103051 C14.6209492,38.2486102 14.6453559,38.1869153 14.6717966,38.1258983 C14.9775593,37.4167458 15.2995932,36.7130169 15.6372203,36.0153898 C16.3117966,34.6201356 17.0507797,33.2553898 17.8677288,31.9374237 C18.2799322,31.2818305 18.7097627,30.6357288 19.1673898,30.0106441 C19.5090847,29.5489492 19.8650169,29.0981017 20.2378983,28.6614915 L23.303661,28.9401356 C24.1701017,29.8669153 24.9172203,30.8865763 25.5456949,31.9631864 C26.2921356,33.2391186 26.8704407,34.5991186 27.3097627,35.9889492 C27.5273898,36.6838644 27.7084068,37.3889492 27.8521356,38.0947119 C27.8853559,38.2581017 27.9165424,38.4208136 27.9450169,38.5835254 C27.9456949,38.5889492 27.9470508,38.5943729 27.9477288,38.6004746 C28.0928136,39.2960678 28.6616271,39.8350508 29.3714576,39.9394576 L30.3823051,39.7808136 C30.9450169,39.5008136 31.3334915,38.9204746 31.3334915,38.2492881 C31.3334915,38.1265763 31.3199322,38.0079322 31.2955254,37.8933559 C31.2284068,37.7170847 31.1592542,37.5428475 31.0880678,37.3692881 C31.0507797,37.2791186 31.0148475,37.1882712 30.9768814,37.0994576 C30.6494237,36.332 30.2867119,35.5875932 29.8867119,34.8655593 C29.084678,33.4242034 28.144339,32.0682712 27.0555254,30.8540339 C26.1151864,29.8018305 25.0656949,28.8574237 23.9287458,28.0614915 L24.0304407,27.9096271 L31.4880678,13.5936949 C31.7199322,13.8858983 31.9450169,14.1828475 32.1606102,14.4852203 C32.6297627,15.1550508 33.0745085,15.8364068 33.4697627,16.5448814 C34.263661,17.9577627 34.9117966,19.4377627 35.4012881,20.9550508 C35.5856949,21.5279322 35.7511186,22.1048814 35.8914576,22.6838644 C35.9368814,22.871661 35.9795932,23.0601356 36.0195932,23.2479322 C36.0812881,23.5286102 36.1328136,23.8086102 36.1809492,24.0879322 C36.5226441,24.5991186 37.1056949,24.9360678 37.7667119,24.9360678 C38.6670508,24.9360678 39.4189153,24.3130169 39.6202712,23.4750508 C39.4704407,23.0567458 39.3124746,22.6458983 39.1416271,22.2431864 Z" id="Fill-7" fill="#FCFAFC" mask="url(#mask-2)"></path>
                </g>
            </g>
        </g>
    </g>
</svg>